<mxfile host="app.diagrams.net" modified="2023-09-08T12:05:42.700Z" agent="Mozilla/5.0 (Windows NT 10.0; Win64; x64) AppleWebKit/537.36 (KHTML, like Gecko) Chrome/116.0.0.0 Safari/537.36" version="21.7.2" etag="BgUlO6c1XLKF949Dfr-a" type="github">
  <diagram name="Page-1" id="K1XWqY1Q2KEufwD1aFHp">
    <mxGraphModel>
      <root>
        <mxCell id="0" />
        <mxCell id="1" parent="0" />
      </root>
    </mxGraphModel>
  </diagram>
</mxfile>
